<svg width="127" height="30" viewBox="0 0 127 30" fill="none" xmlns="http://www.w3.org/2000/svg">
<g clip-path="url(#clip0_12_871)">
<path d="M117.559 10.8466C118.051 10.8466 118.522 10.9039 118.973 11.0185C119.422 11.1329 119.84 11.2844 120.226 11.4726C120.611 11.6609 120.955 11.881 121.258 12.1357C121.399 12.2532 121.528 12.3753 121.643 12.5019L121.712 11.1161H125.449V23.0976C125.449 24.1613 125.289 25.1078 124.969 25.9335C124.651 26.7607 124.183 27.4642 123.569 28.0458C122.953 28.6258 122.213 29.0645 121.344 29.3583C120.475 29.6536 119.461 29.8017 118.395 29.8017C117.329 29.8017 116.268 29.6443 115.21 29.3339C114.155 29.0235 113.298 28.6229 112.643 28.1317L114.019 25.3817C114.363 25.6108 114.745 25.8115 115.163 25.9833C115.58 26.155 116.018 26.2892 116.478 26.3886C116.936 26.4865 117.402 26.5341 117.877 26.5341C118.713 26.5341 119.394 26.4125 119.918 26.1669C120.442 25.9213 120.836 25.5493 121.098 25.0507C121.361 24.5505 121.492 23.925 121.492 23.1718V22.496L121.406 22.5819C120.955 23.0234 120.401 23.3806 119.747 23.6503C119.091 23.92 118.395 24.0555 117.658 24.0556C116.478 24.0556 115.423 23.7818 114.499 23.2333C113.572 22.6849 112.844 21.924 112.311 20.9491C111.777 19.9758 111.512 18.8834 111.512 17.5741C111.512 16.2648 111.774 15.106 112.299 14.0995C112.823 13.093 113.544 12.2988 114.461 11.7187C115.38 11.1372 116.411 10.8466 117.559 10.8466ZM80.8862 10.87C81.9994 10.8701 82.9916 11.1615 83.8589 11.7431C84.7277 12.3246 85.4118 13.1165 85.9126 14.123C86.4119 15.1309 86.6616 16.3111 86.6616 17.622C86.6616 18.9326 86.4117 20.0944 85.9126 21.1083C85.4118 22.1238 84.7235 22.9227 83.8472 23.5028C82.9708 24.0844 81.9677 24.3739 80.8364 24.3739C80.0989 24.3739 79.3943 24.2356 78.7231 23.9569C78.0504 23.6797 77.4844 23.3026 77.0259 22.828V29.5556H73.0688V11.1161H76.8052L76.8765 12.5292C76.9323 12.4659 76.9894 12.4039 77.0513 12.3437C77.4932 11.9022 78.0546 11.545 78.7349 11.2753C79.4152 11.0056 80.132 10.87 80.8862 10.87ZM52.4517 6.62296C53.2707 6.62296 54.0749 6.72984 54.8608 6.94229C55.6466 7.15474 56.3798 7.46932 57.0601 7.88663C57.7404 8.304 58.3251 8.80039 58.8169 9.37296L56.2603 12.2939C55.9164 11.9354 55.5511 11.6192 55.1665 11.3495C54.7819 11.0799 54.3594 10.8722 53.9009 10.7245C53.441 10.5769 52.951 10.5029 52.4263 10.5028C51.7717 10.5028 51.1515 10.6218 50.5708 10.8583C49.99 11.0964 49.4818 11.4312 49.0474 11.8651L49.0483 11.8632C48.6139 12.2971 48.2747 12.8249 48.0288 13.4472C47.783 14.0694 47.6606 14.7808 47.6606 15.5341C47.6607 16.2873 47.783 16.9717 48.0288 17.5849C48.2747 18.198 48.6191 18.7265 49.061 19.1679C49.503 19.6093 50.0399 19.9457 50.6704 20.1747C51.3008 20.4036 52.0005 20.5184 52.771 20.5185C53.2959 20.5185 53.7958 20.4444 54.271 20.2968C54.7461 20.1491 55.1852 19.9498 55.5864 19.6952C55.9876 19.4421 56.3436 19.151 56.6558 18.8241L58.6714 22.0155C58.2611 22.4751 57.716 22.8839 57.0356 23.244C56.3555 23.6041 55.6014 23.8858 54.7749 24.0907C53.9468 24.2956 53.1154 24.3983 52.2798 24.3983C50.9855 24.3983 49.7917 24.1809 48.7026 23.747C47.6122 23.313 46.6662 22.7001 45.8638 21.9062C45.0613 21.1121 44.4437 20.1713 44.0093 19.0819C43.5749 17.9941 43.3569 16.7615 43.3569 15.4853C43.357 14.2092 43.5869 13.0313 44.0454 11.9511C44.504 10.8707 45.1391 9.93362 45.9507 9.13956C46.7607 8.3455 47.7185 7.72752 48.8257 7.28604C49.9328 6.84462 51.1409 6.62296 52.4517 6.62296ZM102.393 10.8466C103.015 10.8466 103.585 10.9368 104.101 11.1161C104.617 11.2969 105.073 11.5458 105.466 11.8651C105.771 12.1121 106.041 12.3891 106.276 12.6962V11.1161H110.184V24.1542H106.202V22.5985C105.96 22.8817 105.682 23.1381 105.367 23.3671C104.941 23.679 104.466 23.9251 103.941 24.1044C103.416 24.2851 102.86 24.3739 102.27 24.3739C101.172 24.3739 100.192 24.0844 99.3325 23.5028C98.4728 22.9227 97.7881 22.1196 97.2798 21.0966C96.7729 20.0735 96.5181 18.9464 96.5181 17.622C96.5181 16.2976 96.773 15.1268 97.2798 14.1112C97.7881 13.0973 98.4848 12.2987 99.3687 11.7187C100.254 11.1371 101.262 10.8466 102.393 10.8466ZM64.3228 24.1542H60.3901V7.83585H64.3228V24.1542ZM70.6011 24.1542H66.6685V11.1161H70.6011V24.1542ZM93.3921 11.1161H95.9253V14.5546H93.3921V24.1542H89.4595V14.5546H87.1509V11.1161H89.4595V7.82706H93.3921V11.1161ZM79.8784 14.1855C79.2721 14.1855 78.7471 14.3253 78.3052 14.6024C77.8617 14.8812 77.5178 15.2822 77.272 15.8065C77.0261 16.3294 76.9038 16.9169 76.9038 17.622C76.9038 18.3271 77.0261 18.9331 77.272 19.4394C77.5178 19.947 77.8618 20.3445 78.3052 20.6308C78.7472 20.9171 79.2886 21.0605 79.8784 21.0605C80.4682 21.0604 80.9843 20.917 81.4263 20.6308C81.8681 20.3445 82.2137 19.947 82.4595 19.4394C82.7053 18.9331 82.8276 18.3091 82.8276 17.622C82.8276 16.9349 82.7053 16.3336 82.4595 15.8183C82.2136 15.303 81.8724 14.9019 81.438 14.6142C81.0036 14.328 80.4847 14.1855 79.8784 14.1855ZM103.351 14.161C102.761 14.161 102.249 14.3045 101.816 14.5907C101.381 14.877 101.04 15.2776 100.795 15.7929C100.55 16.3096 100.426 16.9169 100.426 17.622C100.426 18.327 100.55 18.9358 100.795 19.4511C101.04 19.9679 101.381 20.3647 101.816 20.6435C102.249 20.922 102.745 21.0605 103.351 21.0605C103.957 21.0605 104.482 20.9221 104.924 20.6435C105.366 20.3647 105.712 19.9679 105.957 19.4511C106.202 18.9358 106.326 18.3255 106.326 17.622C106.326 16.9184 106.202 16.3096 105.957 15.7929C105.712 15.2776 105.366 14.877 104.924 14.5907C104.482 14.3044 103.941 14.161 103.351 14.161ZM118.493 14.161C117.87 14.1611 117.328 14.3045 116.87 14.5907C116.411 14.877 116.055 15.2777 115.8 15.7929C115.547 16.3096 115.42 16.9107 115.42 17.5976C115.42 18.2844 115.547 18.8829 115.8 19.3905C116.055 19.8982 116.411 20.2947 116.87 20.581C117.328 20.8672 117.855 21.0106 118.493 21.0107C119.131 21.0107 119.685 20.8672 120.153 20.581C120.619 20.2947 120.979 19.8981 121.234 19.3905C121.487 18.8828 121.614 18.2845 121.614 17.5976C121.614 16.9107 121.487 16.3096 121.234 15.7929C120.979 15.2777 120.619 14.877 120.153 14.5907C119.685 14.3044 119.116 14.161 118.493 14.161ZM68.645 4.47842C69.488 4.47842 70.0597 4.47842 70.3735 4.65909C70.5786 4.77808 70.7495 4.94842 70.8687 5.15323C71.0496 5.46659 71.0493 5.88737 71.0493 6.7294V6.80362C71.0493 7.64586 71.0497 8.06639 70.8687 8.37979C70.7495 8.58471 70.5787 8.7549 70.3735 8.87393C70.0598 9.05469 69.4881 9.0546 68.645 9.0546C67.802 9.0546 67.2303 9.05462 66.9165 8.87393C66.7114 8.75491 66.5406 8.58468 66.4214 8.37979C66.2404 8.06639 66.2407 7.64588 66.2407 6.80362V6.7294C66.2407 5.88737 66.2404 5.46659 66.4214 5.15323C66.5405 4.94845 66.7115 4.77806 66.9165 4.65909C67.2303 4.47849 67.8021 4.47842 68.645 4.47842Z" fill="#1A042D"></path>
<path d="M20.4763 1.37247C23.3391 1.37281 25.6599 3.69421 25.6599 6.55704C25.6596 9.41959 23.3389 11.7403 20.4763 11.7406H7.60522C5.92708 11.7408 4.56719 13.1015 4.56714 14.7797V18.5336C4.56738 20.2116 5.9272 21.5725 7.60522 21.5727H18.6882C20.3662 21.5724 21.7271 20.2116 21.7273 18.5336V17.2719C21.7216 17.1117 21.7226 16.9514 21.7332 16.7914C21.7356 16.7556 21.7386 16.7202 21.7429 16.685C21.8585 15.3877 22.5112 14.1309 23.7048 13.2953L28.2625 10.1049C31.3427 7.94895 35.5746 10.1527 35.575 13.9125V20.2934L35.5632 20.641C35.3119 24.1866 31.2465 26.1898 28.2625 24.101L24.8806 21.7338C23.7207 23.9733 21.3841 25.5051 18.6882 25.5053H7.60522C3.75524 25.5051 0.63379 22.3836 0.633545 18.5336V14.7797C0.633595 10.9296 3.75513 7.8082 7.60522 7.80801H20.4763C21.1669 7.80767 21.727 7.24764 21.7273 6.55704C21.7273 5.86617 21.1671 5.3064 20.4763 5.30606H11.449C10.3631 5.30606 9.48242 4.42504 9.48218 3.33926C9.48218 2.25328 10.363 1.37247 11.449 1.37247H20.4763ZM31.6433 13.9125C31.643 13.3343 30.9911 12.9959 30.5173 13.3275L25.9597 16.518C25.5792 16.7849 25.5552 17.3306 25.8884 17.6322L25.9597 17.6889L30.5173 20.8793C30.9912 21.211 31.6433 20.8718 31.6433 20.2934V13.9125ZM8.72046 14.3256C8.92464 13.8086 9.65687 13.8086 9.86108 14.3256L10.2673 15.3578C10.3296 15.5156 10.4553 15.6412 10.613 15.7035L11.6453 16.1107C12.1627 16.3148 12.1627 17.0473 11.6453 17.2514L10.613 17.6576C10.4552 17.72 10.3296 17.8455 10.2673 18.0033L9.86108 19.0356C9.65702 19.553 8.92452 19.553 8.72046 19.0356L8.31323 18.0033C8.25089 17.8455 8.12539 17.7199 7.96753 17.6576L6.9353 17.2514C6.41852 17.0471 6.41857 16.315 6.9353 16.1107L7.96753 15.7035C8.1255 15.6412 8.25093 15.5158 8.31323 15.3578L8.72046 14.3256ZM16.7439 14.3256C16.948 13.8086 17.6803 13.8087 17.8845 14.3256L18.2917 15.3578C18.354 15.5156 18.4788 15.6411 18.6365 15.7035L19.6687 16.1107C20.1861 16.3148 20.1861 17.0473 19.6687 17.2514L18.6365 17.6576C18.4787 17.7199 18.354 17.8456 18.2917 18.0033L17.8845 19.0356C17.6805 19.553 16.948 19.553 16.7439 19.0356L16.3367 18.0033C16.2743 17.8456 16.1497 17.7199 15.9919 17.6576L14.9587 17.2514C14.4422 17.0471 14.4422 16.3151 14.9587 16.1107L15.9919 15.7035C16.1497 15.6412 16.2744 15.5157 16.3367 15.3578L16.7439 14.3256Z" fill="url(#paint0_linear_12_871)"></path>
</g>
<defs>
<linearGradient id="paint0_linear_12_871" x1="35.575" y1="1.37247" x2="-2.43168" y2="11.8125" gradientUnits="userSpaceOnUse">
<stop stop-color="#9844FE"></stop>
<stop offset="1" stop-color="#255CF3"></stop>
</linearGradient>
<clipPath id="clip0_12_871">
<rect width="127" height="30" fill="white"></rect>
</clipPath>
</defs>
</svg>