<svg xmlns="http://www.w3.org/2000/svg" viewBox="0 0 48 48" width="48" height="48">
  <rect width="48" height="48" rx="11" fill="#0f0f12"/>
  <g transform="translate(6 11)">
    <path d="M20.4763 1.37247C23.3391 1.37281 25.6599 3.69421 25.6599 6.55704C25.6596 9.41959 23.3389 11.7403 20.4763 11.7406H7.60522C5.92708 11.7408 4.56719 13.1015 4.56714 14.7797V18.5336C4.56738 20.2116 5.9272 21.5725 7.60522 21.5727H18.6882C20.3662 21.5724 21.7271 20.2116 21.7273 18.5336V17.2719C21.7216 17.1117 21.7226 16.9514 21.7332 16.7914C21.7356 16.7556 21.7386 16.7202 21.7429 16.685C21.8585 15.3877 22.5112 14.1309 23.7048 13.2953L28.2625 10.1049C31.3427 7.94895 35.5746 10.1527 35.575 13.9125V20.2934L35.5632 20.641C35.3119 24.1866 31.2465 26.1898 28.2625 24.101L24.8806 21.7338C23.7207 23.9733 21.3841 25.5051 18.6882 25.5053H7.60522C3.75524 25.5051 0.63379 22.3836 0.633545 18.5336V14.7797C0.633595 10.9296 3.75513 7.8082 7.60522 7.80801H20.4763C21.1669 7.80767 21.727 7.24764 21.7273 6.55704C21.7273 5.86617 21.1671 5.3064 20.4763 5.30606H11.449C10.3631 5.30606 9.48242 4.42504 9.48218 3.33926C9.48218 2.25328 10.363 1.37247 11.449 1.37247H20.4763ZM31.6433 13.9125C31.643 13.3343 30.9911 12.9959 30.5173 13.3275L25.9597 16.518C25.5792 16.7849 25.5552 17.3306 25.8884 17.6322L25.9597 17.6889L30.5173 20.8793C30.9912 21.211 31.6433 20.8718 31.6433 20.2934V13.9125ZM8.72046 14.3256C8.92464 13.8086 9.65687 13.8086 9.86108 14.3256L10.2673 15.3578C10.3296 15.5156 10.4553 15.6412 10.613 15.7035L11.6453 16.1107C12.1627 16.3148 12.1627 17.0473 11.6453 17.2514L10.613 17.6576C10.4552 17.72 10.3296 17.8455 10.2673 18.0033L9.86108 19.0356C9.65702 19.553 8.92452 19.553 8.72046 19.0356L8.31323 18.0033C8.25089 17.8455 8.12539 17.7199 7.96753 17.6576L6.9353 17.2514C6.41852 17.0471 6.41857 16.315 6.9353 16.1107L7.96753 15.7035C8.1255 15.6412 8.25093 15.5158 8.31323 15.3578L8.72046 14.3256ZM16.7439 14.3256C16.948 13.8086 17.6803 13.8087 17.8845 14.3256L18.2917 15.3578C18.354 15.5156 18.4788 15.6411 18.6365 15.7035L19.6687 16.1107C20.1861 16.3148 20.1861 17.0473 19.6687 17.2514L18.6365 17.6576C18.4787 17.7199 18.354 17.8456 18.2917 18.0033L17.8845 19.0356C17.6805 19.553 16.948 19.553 16.7439 19.0356L16.3367 18.0033C16.2743 17.8456 16.1497 17.7199 15.9919 17.6576L14.9587 17.2514C14.4422 17.0471 14.4422 16.3151 14.9587 16.1107L15.9919 15.7035C16.1497 15.6412 16.2744 15.5157 16.3367 15.3578L16.7439 14.3256Z" fill="url(#fav)"/>
  </g>
  <defs>
    <linearGradient id="fav" x1="35.575" y1="1.37247" x2="-2.43168" y2="11.8125" gradientUnits="userSpaceOnUse">
      <stop stop-color="#9844FE"/>
      <stop offset="1" stop-color="#255CF3"/>
    </linearGradient>
  </defs>
</svg>
